<svg xmlns="http://www.w3.org/2000/svg" width="1200" height="675" viewBox="0 0 1200 675" role="img" aria-labelledby="title desc">
  <title id="title">Apparel packaging - boxes, garment bags, and branded mailers</title>
  <desc id="desc">Professional packaging illustration for apparel packaging.</desc>
  <rect width="1200" height="675" fill="#f7f3ea"/>
  <rect x="70" y="60" width="1060" height="555" rx="24" fill="#0f0d0a"/>
  <text x="112" y="132" fill="#f7f3ea" font-family="Arial, sans-serif" font-size="42" font-weight="700">Apparel packaging - boxes, garment bags, and branded mailers</text>
  <text x="112" y="174" fill="#d7d1c4" font-family="Arial, sans-serif" font-size="21">Apex Packaging Solutions buyer guide for USA and Canada packaging teams.</text>
  <g transform="translate(132 235)">
    <rect x="0" y="82" width="270" height="155" fill="#d6a000" stroke="#f7f3ea" stroke-width="5"/>
    <path d="M0 82 58 28h270l-58 54z" fill="#f0c95a" stroke="#f7f3ea" stroke-width="5"/>
    <path d="M270 82 328 28v155l-58 54z" fill="#a87900" stroke="#f7f3ea" stroke-width="5"/>
    <rect x="88" y="130" width="100" height="58" rx="8" fill="#0f0d0a" opacity="0.84"/>
  </g>
  <g transform="translate(575 238)">
    <rect width="395" height="230" rx="18" fill="#f7f3ea"/>
    <text x="34" y="58" fill="#0f0d0a" font-family="Arial, sans-serif" font-size="24" font-weight="700">Quote checklist</text>
    <path d="M38 94h320M38 132h290M38 170h250" stroke="#0f0d0a" stroke-width="10" stroke-linecap="round"/>
    <circle cx="322" cy="92" r="14" fill="#d6a000"/>
    <circle cx="296" cy="130" r="14" fill="#8fb8be"/>
    <circle cx="256" cy="168" r="14" fill="#b96f4a"/>
  </g>
  <text x="112" y="570" fill="#f7f3ea" font-family="Arial, sans-serif" font-size="22" font-weight="700">Apex Packaging Solutions</text>
</svg>